<svg width="64" height="65" viewBox="0 0 64 65" fill="none" xmlns="http://www.w3.org/2000/svg">
<rect y="0.353027" width="64" height="64" rx="32" fill="#4F3422"/>
<path d="M31.9999 35.9087C35.4364 35.9087 38.2222 38.6945 38.2222 42.1309V42.1309C38.2222 45.5674 35.4364 48.3531 31.9999 48.3531V48.3531C28.5635 48.3531 25.7777 45.5674 25.7777 42.1309V42.1309C25.7777 38.6945 28.5635 35.9087 31.9999 35.9087V35.9087Z" fill="white"/>
<path d="M22.2221 26.1309C25.6586 26.1309 28.4443 28.9166 28.4443 32.3531V32.3531C28.4443 35.7895 25.6586 38.5753 22.2221 38.5753V38.5753C18.7857 38.5753 15.9999 35.7895 15.9999 32.3531V32.3531C15.9999 28.9166 18.7857 26.1309 22.2221 26.1309V26.1309Z" fill="white"/>
<path d="M31.9999 16.353C35.4364 16.353 38.2222 19.1388 38.2222 22.5753V22.5753C38.2222 26.0117 35.4364 28.7975 31.9999 28.7975V28.7975C28.5635 28.7975 25.7777 26.0117 25.7777 22.5753V22.5753C25.7777 19.1388 28.5635 16.353 31.9999 16.353V16.353Z" fill="white"/>
<path d="M41.7778 26.1309C45.2142 26.1309 48 28.9166 48 32.3531V32.3531C48 35.7895 45.2142 38.5753 41.7778 38.5753V38.5753C38.3413 38.5753 35.5556 35.7895 35.5556 32.3531V32.3531C35.5556 28.9166 38.3413 26.1309 41.7778 26.1309V26.1309Z" fill="white"/>
</svg>
