<svg width="24" height="24" viewBox="0 0 24 24" fill="none" xmlns="http://www.w3.org/2000/svg">
<g id="Monotone chart">
<g id="Vector">
<path d="M14 5.99976V17.9998C14 19.1043 13.1046 19.9998 12 19.9998C10.8954 19.9998 10 19.1043 10 17.9998V5.99976C10 4.89519 10.8954 3.99976 12 3.99976C13.1046 3.99976 14 4.89519 14 5.99976Z" fill="currentColor"/>
<path d="M20 17.9998V10.9998C20 9.89519 19.1046 8.99976 18 8.99976C16.8954 8.99976 16 9.89519 16 10.9998V17.9998C16 19.1043 16.8954 19.9998 18 19.9998C19.1046 19.9998 20 19.1043 20 17.9998Z" fill="currentColor"/>
<path d="M8 17.9998V14.9998C8 13.8952 7.10457 12.9998 6 12.9998C4.89543 12.9998 4 13.8952 4 14.9998V17.9998C4 19.1043 4.89543 19.9998 6 19.9998C7.10457 19.9998 8 19.1043 8 17.9998Z" fill="currentColor"/>
</g>
</g>
</svg>
