<svg width="24" height="24" viewBox="0 0 24 24" fill="none" xmlns="http://www.w3.org/2000/svg">
<g id="Monotone home">
<g id="Vector">
<path d="M11.0001 16C11.0001 15.4477 11.4478 15 12.0001 15C12.5524 15 13.0001 15.4477 13.0001 16C13.0001 16.5523 12.5524 17 12.0001 17C11.4478 17 11.0001 16.5523 11.0001 16Z" fill="currentColor"/>
<path fill-rule="evenodd" clip-rule="evenodd" d="M20.293 10.7071L19.0001 9.41422V14C19.0001 17.866 15.8661 21 12.0001 21C8.13408 21 5.00008 17.866 5.00008 14V9.41422L3.70718 10.7071L2.29297 9.2929L8.46454 3.12132C10.4172 1.1687 13.583 1.16871 15.5356 3.12133L21.7072 9.2929L20.293 10.7071ZM12.0001 13C10.3433 13 9.00012 14.3431 9.00012 16C9.00012 17.6569 10.3433 19 12.0001 19C13.657 19 15.0001 17.6569 15.0001 16C15.0001 14.3431 13.657 13 12.0001 13Z" fill="currentColor"/>
</g>
</g>
</svg>
