<svg width="24" height="24" viewBox="0 0 24 24" fill="none" xmlns="http://www.w3.org/2000/svg">
<g id="Monotone user">
<g id="Vector">
<path d="M5.53284 17.3207C5.18106 18.17 5 19.0803 5 19.9995L19 19.9995C19 19.0803 18.8189 18.17 18.4672 17.3207C18.1154 16.4715 17.5998 15.6998 16.9497 15.0498C16.2997 14.3998 15.5281 13.8841 14.6788 13.5324C13.8295 13.1806 12.9193 12.9995 12 12.9995C11.0807 12.9995 10.1705 13.1806 9.32122 13.5324C8.47194 13.8841 7.70026 14.3998 7.05025 15.0498C6.40024 15.6998 5.88463 16.4714 5.53284 17.3207Z" fill="currentColor"/>
<path d="M9 7.99951C9 6.34266 10.3431 4.99951 12 4.99951C13.6569 4.99951 15 6.34266 15 7.99951C15 9.65637 13.6569 10.9995 12 10.9995C10.3431 10.9995 9 9.65637 9 7.99951Z" fill="currentColor"/>
</g>
</g>
</svg>
